<svg xmlns="http://www.w3.org/2000/svg" viewBox="0 0 1480 925" width="1480" height="925" role="img">
  <title>Placeholder: enter an amount UI fragment</title>
  <rect width="1480" height="925" fill="#F5F4ED"/>
  <g>
    <rect x="64" y="64" width="1352" height="180" rx="36" fill="#CF4F3E"/>
    <rect x="112" y="120" width="140" height="68" rx="34" fill="#FAF9F5"/>
    <rect x="1000" y="112" width="368" height="80" rx="16" fill="#FAF9F5"/>
  </g>
  <g fill="#FAF9F5" stroke="#D1CFC5" stroke-width="2">
    <rect x="64" y="272" width="320" height="150" rx="24"/>
    <rect x="416" y="272" width="320" height="150" rx="24"/>
    <rect x="768" y="272" width="320" height="150" rx="24"/>
    <rect x="1120" y="272" width="296" height="150" rx="24"/>
    <rect x="64" y="450" width="320" height="150" rx="24"/>
    <rect x="416" y="450" width="320" height="150" rx="24"/>
    <rect x="768" y="450" width="320" height="150" rx="24"/>
    <rect x="1120" y="450" width="296" height="150" rx="24"/>
  </g>
  <rect x="104" y="316" width="60" height="24" rx="12" fill="#D1CFC5"/>
  <rect x="104" y="356" width="180" height="36" rx="18" fill="#3D3D3A"/>
  <rect x="456" y="316" width="60" height="24" rx="12" fill="#D1CFC5"/>
  <rect x="456" y="356" width="180" height="36" rx="18" fill="#3D3D3A"/>
  <rect x="808" y="316" width="60" height="24" rx="12" fill="#D1CFC5"/>
  <rect x="808" y="356" width="180" height="36" rx="18" fill="#3D3D3A"/>
  <rect x="1160" y="316" width="60" height="24" rx="12" fill="#D1CFC5"/>
  <rect x="1160" y="356" width="150" height="36" rx="18" fill="#3D3D3A"/>
  <rect x="104" y="494" width="60" height="24" rx="12" fill="#D1CFC5"/>
  <rect x="104" y="534" width="180" height="36" rx="18" fill="#3D3D3A"/>
  <rect x="456" y="494" width="60" height="24" rx="12" fill="#D1CFC5"/>
  <rect x="456" y="534" width="180" height="36" rx="18" fill="#3D3D3A"/>
  <rect x="808" y="494" width="60" height="24" rx="12" fill="#D1CFC5"/>
  <rect x="808" y="534" width="180" height="36" rx="18" fill="#3D3D3A"/>
  <rect x="1160" y="494" width="60" height="24" rx="12" fill="#D1CFC5"/>
  <rect x="1160" y="534" width="150" height="36" rx="18" fill="#3D3D3A"/>
  <g>
    <rect x="64" y="656" width="1352" height="150" rx="24" fill="#FAF9F5" stroke="#D1CFC5" stroke-width="2"/>
    <rect x="104" y="700" width="60" height="24" rx="12" fill="#D1CFC5"/>
    <rect x="104" y="740" width="220" height="36" rx="18" fill="#3D3D3A"/>
  </g>
</svg>
